<svg width="491" height="494" viewBox="0 0 491 494" fill="none" xmlns="http://www.w3.org/2000/svg">
<rect width="491" height="494" fill="#002207"/>
<path d="M387.9 69.0889C388.234 69.1254 388.528 69.3273 388.682 69.626C407.756 106.773 426.875 147.36 426.875 218.416C426.875 320.99 335.366 404.831 235.46 404.832L235.461 404.833L235.459 404.832L235.458 404.833V404.832C201.78 404.931 169.29 392.702 144.432 370.564C131.571 359.11 121.24 345.437 113.86 330.379C104.733 336.241 96.8045 343.168 90.1465 350.989C73.8185 370.169 65.083 394.78 65.083 422.375C65.083 422.927 64.6353 423.375 64.083 423.375C63.5308 423.375 63.083 422.927 63.083 422.375C63.083 394.345 71.9616 369.264 88.623 349.692C95.467 341.653 103.617 334.553 112.989 328.563C106.612 315.018 102.6 300.398 101.261 285.294C98.3621 252.599 108.189 220.039 128.787 194.075C149.384 168.112 179.246 150.64 212.444 145.117C266.721 134.918 300.883 127.425 326.232 116.767C351.516 106.136 368.055 92.3467 387.021 69.4453C387.236 69.1866 387.566 69.0525 387.9 69.0889ZM387.59 71.8838C368.872 94.2746 352.226 108.008 327.008 118.61C301.424 129.367 267.042 136.893 212.793 147.087C212.786 147.088 212.779 147.089 212.772 147.09C180.054 152.533 150.637 169.75 130.354 195.318C110.071 220.886 100.4 252.938 103.253 285.117C104.564 299.902 108.476 314.219 114.695 327.492C127.776 319.445 143.157 313.514 160.625 310.144C183.545 305.717 206.874 296.486 226.854 286.042C246.844 275.593 263.415 263.964 272.844 254.783C273.239 254.398 273.873 254.407 274.258 254.803C274.643 255.198 274.635 255.832 274.239 256.217C264.626 265.577 247.875 277.311 227.781 287.814C207.679 298.322 184.164 307.633 161.004 312.106C143.673 315.45 128.463 321.338 115.562 329.308C122.834 344.208 133.04 357.741 145.762 369.07C170.248 390.878 202.262 402.931 235.455 402.833H235.458C334.347 402.833 424.875 319.8 424.875 218.416C424.875 148.668 406.365 108.537 387.59 71.8838Z" fill="black"/>
<path d="M387.9 69.0889L389.258 56.6629L389.255 56.6626L387.9 69.0889ZM388.682 69.626L399.801 63.9162L399.799 63.9116L388.682 69.626ZM426.875 218.416H439.375V218.416L426.875 218.416ZM235.46 404.832L235.46 392.332C230.404 392.332 225.846 395.378 223.911 400.049C221.977 404.719 223.046 410.096 226.621 413.671L235.46 404.832ZM235.461 404.833L229.871 416.013C235.354 418.755 242.017 417.115 245.601 412.142C249.186 407.168 248.635 400.329 244.3 395.994L235.461 404.833ZM235.459 404.832L241.049 393.652C236.237 391.246 230.425 392.189 226.62 395.993L235.459 404.832ZM235.458 404.833H222.958C222.958 409.889 226.004 414.447 230.674 416.382C235.345 418.316 240.722 417.247 244.297 413.672L235.458 404.833ZM235.458 404.832H247.958C247.958 401.511 246.636 398.326 244.284 395.98C241.932 393.635 238.743 392.322 235.421 392.332L235.458 404.832ZM144.432 370.564L136.118 379.898L136.118 379.898L144.432 370.564ZM113.86 330.379L125.085 324.878C123.516 321.676 120.654 319.297 117.22 318.339C113.786 317.381 110.106 317.934 107.106 319.861L113.86 330.379ZM90.1465 350.989L80.6284 342.887H80.6283L90.1465 350.989ZM64.083 423.375L64.08 435.875H64.083V423.375ZM88.623 349.692L79.1049 341.59H79.1049L88.623 349.692ZM112.989 328.563L119.721 339.095C125.016 335.711 126.975 328.922 124.298 323.237L112.989 328.563ZM101.261 285.294L88.8096 286.398L88.8096 286.398L101.261 285.294ZM128.787 194.075L118.994 186.306L118.994 186.307L128.787 194.075ZM212.444 145.117L214.496 157.448C214.582 157.433 214.667 157.418 214.753 157.402L212.444 145.117ZM326.232 116.767L331.077 128.29L331.077 128.29L326.232 116.767ZM387.021 69.4453L377.397 61.4696L377.394 61.4722L387.021 69.4453ZM387.59 71.8838L398.715 66.185C396.803 62.4527 393.147 59.9278 388.98 59.4614C384.813 58.995 380.689 60.6493 378 63.8666L387.59 71.8838ZM327.008 118.61L331.853 130.133V130.133L327.008 118.61ZM212.793 147.087L210.484 134.802L210.483 134.802L212.793 147.087ZM212.772 147.09L210.726 134.759L210.721 134.759L212.772 147.09ZM130.354 195.318L120.561 187.55L120.561 187.55L130.354 195.318ZM103.253 285.117L90.8018 286.221L90.8018 286.221L103.253 285.117ZM114.695 327.492L103.376 332.796C104.887 336.021 107.702 338.448 111.114 339.468C114.526 340.489 118.212 340.005 121.245 338.139L114.695 327.492ZM160.625 310.144L162.993 322.417L162.995 322.417L160.625 310.144ZM226.854 286.042L232.645 297.12V297.12L226.854 286.042ZM272.844 254.783L264.126 245.825L264.123 245.828L272.844 254.783ZM274.258 254.803L283.216 246.085L283.212 246.081L274.258 254.803ZM274.239 256.217L282.96 265.172L282.96 265.172L274.239 256.217ZM227.781 287.814L233.572 298.892L233.572 298.892L227.781 287.814ZM161.004 312.106L163.372 324.38L163.374 324.38L161.004 312.106ZM115.562 329.308L108.993 318.673C103.528 322.049 101.512 329.017 104.329 334.79L115.562 329.308ZM145.762 369.07L137.448 378.405L137.448 378.405L145.762 369.07ZM235.455 402.833V390.333C235.443 390.333 235.431 390.333 235.418 390.333L235.455 402.833ZM424.875 218.416H437.375V218.416L424.875 218.416ZM387.9 69.0889L386.543 81.5149C382.706 81.0957 379.332 78.7792 377.564 75.3404L388.682 69.626L399.799 63.9116C397.724 59.8753 393.762 57.155 389.258 56.6629L387.9 69.0889ZM388.682 69.626L377.562 75.3358C396.225 111.682 414.375 150.203 414.375 218.416L426.875 218.416L439.375 218.416C439.375 144.516 419.287 101.865 399.801 63.9162L388.682 69.626ZM426.875 218.416H414.375C414.375 313.553 329.008 392.331 235.46 392.332L235.46 404.832L235.46 417.332C341.723 417.331 439.375 328.427 439.375 218.416H426.875ZM235.46 404.832L226.621 413.671L226.622 413.672L235.461 404.833L244.3 395.994L244.299 395.993L235.46 404.832ZM235.461 404.833L241.051 393.653L241.049 393.652L235.459 404.832L229.869 416.012L229.871 416.013L235.461 404.833ZM235.459 404.832L226.62 395.993L226.619 395.994L235.458 404.833L244.297 413.672L244.298 413.671L235.459 404.832ZM235.458 404.833H247.958V404.832H235.458H222.958V404.833H235.458ZM235.458 404.832L235.421 392.332C204.781 392.422 175.274 381.293 152.745 361.229L144.432 370.564L136.118 379.898C163.306 404.111 198.78 417.439 235.495 417.332L235.458 404.832ZM144.432 370.564L152.745 361.229C141.093 350.852 131.751 338.48 125.085 324.878L113.86 330.379L102.636 335.88C110.729 352.393 122.049 367.368 136.118 379.898L144.432 370.564ZM113.86 330.379L107.106 319.861C96.9728 326.369 88.1061 334.103 80.6284 342.887L90.1465 350.989L99.6646 359.092C105.503 352.234 112.493 346.113 120.615 340.897L113.86 330.379ZM90.1465 350.989L80.6283 342.887C62.2164 364.515 52.583 392.065 52.583 422.375H65.083H77.583C77.583 397.494 85.4205 375.824 99.6646 359.092L90.1465 350.989ZM65.083 422.375H52.583C52.583 416.024 57.7317 410.875 64.083 410.875V423.375V435.875C71.5389 435.875 77.583 429.831 77.583 422.375H65.083ZM64.083 423.375L64.086 410.875C70.4321 410.877 75.583 416.021 75.583 422.375H63.083H50.583C50.583 429.834 56.6295 435.873 64.08 435.875L64.083 423.375ZM63.083 422.375H75.583C75.583 397.059 83.5639 374.919 98.1412 357.795L88.623 349.692L79.1049 341.59C60.3592 363.61 50.583 391.632 50.583 422.375H63.083ZM88.623 349.692L98.1412 357.795C104.158 350.727 111.362 344.438 119.721 339.095L112.989 328.563L106.257 318.03C95.8721 324.668 86.7757 332.579 79.1049 341.59L88.623 349.692ZM112.989 328.563L124.298 323.237C118.537 311.003 114.919 297.81 113.712 284.19L101.261 285.294L88.8096 286.398C90.2803 302.986 94.6856 319.033 101.68 333.888L112.989 328.563ZM101.261 285.294L113.712 284.19C111.099 254.719 119.95 225.328 138.58 201.844L128.787 194.075L118.994 186.307C96.4291 214.751 85.6251 250.478 88.8096 286.398L101.261 285.294ZM128.787 194.075L138.58 201.844C157.218 178.351 184.3 162.471 214.496 157.448L212.444 145.117L210.393 132.787C174.191 138.809 141.551 157.873 118.994 186.306L128.787 194.075ZM212.444 145.117L214.753 157.402C268.78 147.249 304.287 139.553 331.077 128.29L326.232 116.767L321.388 105.244C297.478 115.296 264.661 122.586 210.136 132.832L212.444 145.117ZM326.232 116.767L331.077 128.29C358.666 116.69 376.748 101.447 396.648 77.4184L387.021 69.4453L377.394 61.4722C359.361 83.2466 344.366 95.5828 321.388 105.244L326.232 116.767ZM387.021 69.4453L396.646 77.4211C394.184 80.3923 390.392 81.9347 386.545 81.5152L387.9 69.0889L389.255 56.6626C384.741 56.1703 380.288 57.981 377.397 61.4696L387.021 69.4453ZM387.59 71.8838L378 63.8666C360.236 85.1159 345.126 97.433 322.163 107.087L327.008 118.61L331.853 130.133C359.326 118.582 377.508 103.433 397.18 79.901L387.59 71.8838ZM327.008 118.61L322.163 107.087C298.02 117.238 264.982 124.561 210.484 134.802L212.793 147.087L215.102 159.372C269.101 149.225 304.829 141.495 331.853 130.133L327.008 118.61ZM212.793 147.087L210.483 134.802C210.705 134.761 210.887 134.733 211.005 134.716C211.119 134.699 211.209 134.688 211.22 134.687C211.224 134.686 211.228 134.686 211.225 134.686C211.225 134.686 211.219 134.687 211.212 134.688C211.198 134.689 211.167 134.693 211.127 134.699C211.05 134.709 210.906 134.729 210.726 134.759L212.772 147.09L214.819 159.421C214.642 159.451 214.502 159.47 214.428 159.48C214.39 159.485 214.361 159.488 214.348 159.49C214.345 159.49 214.342 159.491 214.341 159.491C214.339 159.491 214.338 159.491 214.337 159.491C214.336 159.492 214.341 159.491 214.346 159.49C214.36 159.489 214.453 159.477 214.57 159.46C214.692 159.442 214.878 159.414 215.103 159.372L212.793 147.087ZM212.772 147.09L210.721 134.759C175 140.702 142.804 159.512 120.561 187.55L130.354 195.318L140.146 203.087C158.471 179.989 185.108 164.364 214.824 159.42L212.772 147.09ZM130.354 195.318L120.561 187.55C98.3104 215.597 87.663 250.818 90.8018 286.221L103.253 285.117L115.704 284.013C113.137 255.058 121.831 226.174 140.146 203.087L130.354 195.318ZM103.253 285.117L90.8018 286.221C92.2434 302.481 96.5455 318.218 103.376 332.796L114.695 327.492L126.014 322.189C120.406 310.22 116.884 297.323 115.704 284.013L103.253 285.117ZM114.695 327.492L121.245 338.139C132.926 330.953 146.867 325.529 162.993 322.417L160.625 310.144L158.257 297.87C139.447 301.499 122.626 307.938 108.146 316.845L114.695 327.492ZM160.625 310.144L162.995 322.417C187.417 317.7 211.909 307.959 232.645 297.12L226.854 286.042L221.064 274.964C201.839 285.014 179.674 293.734 158.255 297.87L160.625 310.144ZM226.854 286.042L232.645 297.12C253.287 286.33 270.982 274.043 281.564 263.739L272.844 254.783L264.123 245.828C255.848 253.885 240.4 264.857 221.064 274.964L226.854 286.042ZM272.844 254.783L281.562 263.741C277.001 268.18 269.724 268.063 265.304 263.525L274.258 254.803L283.212 246.081C278.021 240.752 269.478 240.617 264.126 245.825L272.844 254.783ZM274.258 254.803L265.3 263.521C260.879 258.978 260.961 251.699 265.519 247.261L274.239 256.217L282.96 265.172C288.308 259.964 288.407 251.419 283.216 246.085L274.258 254.803ZM274.239 256.217L265.519 247.261C257.059 255.498 241.431 266.575 221.991 276.737L227.781 287.814L233.572 298.892C254.318 288.048 272.193 275.657 282.96 265.172L274.239 256.217ZM227.781 287.814L221.991 276.737C202.645 286.849 180.293 295.65 158.633 299.833L161.004 312.106L163.374 324.38C188.036 319.617 212.714 309.795 233.572 298.892L227.781 287.814ZM161.004 312.106L158.636 299.833C139.957 303.437 123.299 309.836 108.993 318.673L115.562 329.308L122.132 339.942C133.626 332.841 147.389 327.464 163.372 324.38L161.004 312.106ZM115.562 329.308L104.329 334.79C112.314 351.154 123.513 365.995 137.448 378.405L145.762 369.07L154.075 359.736C142.567 349.487 133.353 337.263 126.796 323.826L115.562 329.308ZM145.762 369.07L137.448 378.405C164.264 402.287 199.262 415.44 235.492 415.333L235.455 402.833L235.418 390.333C205.263 390.422 176.233 379.469 154.075 359.736L145.762 369.07ZM235.455 402.833V415.333H235.458V402.833V390.333H235.455V402.833ZM235.458 402.833V415.333C340.706 415.333 437.375 327.236 437.375 218.416H424.875H412.375C412.375 312.365 327.987 390.333 235.458 390.333V402.833ZM424.875 218.416L437.375 218.416C437.375 145.868 417.927 103.691 398.715 66.185L387.59 71.8838L376.465 77.5827C394.803 113.383 412.375 151.468 412.375 218.416L424.875 218.416Z" fill="white"/>
</svg>
